<svg width="91" height="91" viewBox="0 0 91 91" fill="none" xmlns="http://www.w3.org/2000/svg">
<g clip-path="url(#clip0_55:138)">
<path d="M45.2773 0.519775C36.3838 0.530124 27.6931 3.17642 20.3034 8.12418C12.9138 13.0719 7.15707 20.0991 3.76085 28.3173C0.364635 36.5356 -0.518605 45.5761 1.22277 54.2962C2.96414 63.0163 7.25196 71.0244 13.5443 77.3085C19.8366 83.5926 27.8509 87.8704 36.5742 89.6014C45.2976 91.3324 54.3384 90.4388 62.5539 87.0335C70.7694 83.6282 77.7908 77.8641 82.7307 70.4698C87.6706 63.0755 90.3072 54.3829 90.3072 45.4908C90.2692 33.5663 85.5111 22.142 77.0731 13.715C68.6351 5.28802 57.2035 0.543923 45.2773 0.519775V0.519775ZM57.7224 26.8586C57.7224 27.7483 57.4083 28.0624 56.5315 28.0362C54.8303 28.0362 53.1291 28.0362 51.4279 28.0362C51.0531 28.0089 50.6769 28.0626 50.3247 28.1937C49.9726 28.3248 49.6528 28.5301 49.3871 28.7958C49.1214 29.0614 48.916 29.3812 48.7849 29.7333C48.6538 30.0854 48.6001 30.4616 48.6274 30.8363C48.2872 36.9205 48.2741 36.9205 54.2676 36.9205C57.7747 36.9205 57.7616 36.9205 57.3167 40.5318C57.0662 42.2094 56.9133 43.9001 56.8587 45.5954C56.8587 47.0085 56.2567 47.3226 55.0004 47.2441C53.4432 47.1656 51.8728 47.3095 50.3024 47.2441C48.9938 47.1525 48.6012 47.6235 48.6012 48.9581C48.6012 57.476 48.6012 65.9678 48.6928 74.5119C48.6928 76.396 48.1301 76.7755 46.4158 76.6839C43.7986 76.54 41.1028 76.5661 38.4463 76.6839C36.9152 76.6839 36.3263 76.4222 36.3787 74.7212C36.5226 70.4296 36.3787 66.1379 36.3787 61.8462C36.3787 57.5545 36.3787 53.2629 36.3787 48.9712C36.3787 47.6628 35.9992 47.2441 34.6644 47.2441C30.5945 47.2441 30.5945 47.2441 30.5945 43.0963C30.5945 41.5262 30.5945 39.9561 30.5945 38.3859C30.5945 37.3915 30.7908 36.9205 31.9032 36.9336C33.3165 36.9336 35.2009 37.6009 36.0253 36.6719C36.8498 35.7429 36.3263 33.6887 36.3263 32.1447C36.2182 29.8982 36.4971 27.6499 37.1507 25.4978C37.7769 23.4237 39.0406 21.5995 40.7625 20.2842C42.4844 18.9689 44.5769 18.2294 46.743 18.1706C49.936 17.9351 53.1422 18.1706 56.3483 18.0659C57.3036 18.0659 57.6569 18.3407 57.6569 19.3744C57.67 21.8211 57.6831 24.3333 57.7224 26.8586Z" fill="#3E5B9A"/>
</g>
<defs>
<clipPath id="clip0_55:138">
<rect width="89.942" height="89.942" fill="white" transform="translate(0.366058 0.519775)"/>
</clipPath>
</defs>
</svg>
