<svg width="154" height="155" viewBox="0 0 154 155" fill="none" xmlns="http://www.w3.org/2000/svg">
<g clip-path="url(#clip0_53:101)">
<path d="M76.9554 154.064C119.34 154.064 153.7 119.704 153.7 77.3191C153.7 34.934 119.34 0.574097 76.9554 0.574097C34.5703 0.574097 0.210358 34.934 0.210358 77.3191C0.210358 119.704 34.5703 154.064 76.9554 154.064Z" fill="#F7C306"/>
<path d="M16.8987 80.7778C17.7531 78.412 18.8491 76.1405 20.1693 73.9994C24.9771 65.3868 29.8067 56.796 34.6581 48.227C35.4758 46.6898 36.4161 45.1853 37.3073 43.6645C37.7092 42.9557 38.351 42.4138 39.1171 42.1365C39.8831 41.8591 40.7231 41.8646 41.4855 42.1518C42.5814 42.6021 43.635 43.1494 44.6335 43.7871C46.5468 44.9073 48.3865 46.1501 50.2753 47.2949C50.7395 47.5728 51.1439 47.9401 51.4651 48.3755C51.7863 48.8109 52.0179 49.3057 52.1464 49.8312C52.2749 50.3568 52.2979 50.9026 52.2139 51.4371C52.1299 51.9716 51.9407 52.484 51.6571 52.9448C50.9376 54.1959 51.0276 54.1223 52.1968 54.9808C54.9196 56.9922 58.1166 57.4338 61.3218 58.0225C62.6464 58.2596 63.5377 58.1124 64.3717 56.9513C65.6636 55.177 67.6995 54.5393 69.711 54.0487C72.7809 53.3413 75.9093 52.9171 79.0567 52.7813C80.9046 52.6587 82.7444 52.536 84.5923 52.5115C88.8427 52.5556 93.0716 53.1213 97.1841 54.1959C99.0234 54.6498 100.897 54.9533 102.785 55.1035C103.889 55.1407 104.993 55.0055 106.056 54.7028C106.342 54.6292 106.366 54.4984 106.227 54.2694C106.015 53.9179 105.835 53.5499 105.622 53.1983C105.011 52.1648 104.788 50.9473 104.993 49.7642C105.15 48.9944 105.591 48.3117 106.227 47.8509C106.901 47.3023 107.614 46.8049 108.361 46.3627C110.504 45.049 112.651 43.7435 114.805 42.4462C115.439 42.0474 116.181 41.8546 116.929 41.8941C117.677 41.9336 118.394 42.2036 118.983 42.6669C119.314 42.8742 119.593 43.1538 119.8 43.4846C123.545 49.8132 127.118 56.2318 130.724 62.634C133.243 67.1148 135.737 71.6037 138.206 76.1008C138.93 77.3548 139.54 78.671 140.029 80.0337C140.329 80.6733 140.387 81.3998 140.193 82.079C139.999 82.7582 139.567 83.3444 138.974 83.7295C137.068 85.1442 135.08 86.4465 133.022 87.6297C132.261 88.0958 131.485 88.521 130.716 88.987C130.263 89.2889 129.753 89.4935 129.216 89.5879C128.68 89.6822 128.131 89.6643 127.602 89.5351C127.073 89.406 126.577 89.1686 126.145 88.8378C125.712 88.507 125.353 88.09 125.091 87.6134C124.772 87.0328 124.387 86.4932 124.06 85.9208C123.733 85.3485 123.521 85.4548 123.161 85.8145C122.491 86.4932 121.804 87.1718 121.109 87.826C120.115 88.7705 119.051 89.6396 117.928 90.4261C117.802 90.4869 117.69 90.5732 117.6 90.6795C117.509 90.7858 117.442 90.9099 117.402 91.0437C117.362 91.1776 117.35 91.3183 117.368 91.4569C117.385 91.5955 117.431 91.729 117.503 91.8488C117.98 93.2742 117.995 94.8139 117.546 96.2483C117.096 97.6828 116.206 98.9388 115.001 99.8373C113.857 100.601 112.543 101.072 111.174 101.211C110.852 101.205 110.539 101.318 110.295 101.53C110.052 101.741 109.896 102.036 109.858 102.356C109.522 103.813 108.732 105.127 107.602 106.107C106.472 107.087 105.06 107.683 103.57 107.809C103.317 107.806 103.069 107.883 102.863 108.03C102.657 108.177 102.504 108.386 102.425 108.627C102.164 109.322 101.927 110.042 101.608 110.72C101.165 111.733 100.453 112.605 99.5492 113.241C98.6451 113.877 97.5838 114.252 96.481 114.326C95.7849 114.347 95.1018 114.52 94.4801 114.833C93.8584 115.147 93.3132 115.594 92.8833 116.141C92.161 117.122 91.2431 117.943 90.1875 118.551C89.132 119.159 87.9618 119.541 86.7509 119.674C84.3575 119.884 81.946 119.699 79.6127 119.126C77.8139 118.684 76.0641 118.104 74.2816 117.597C74.0666 117.504 73.8254 117.493 73.6027 117.565C73.3801 117.637 73.1913 117.788 73.0715 117.989C72.3351 119.186 71.2264 120.108 69.9154 120.614C69.5229 120.728 69.0977 120.81 68.7298 120.908H66.6529C66.2735 120.842 65.8992 120.749 65.5327 120.63C63.7097 119.961 62.2079 118.626 61.33 116.894C61.1796 116.517 60.8947 116.21 60.5305 116.032C60.1664 115.853 59.7491 115.817 59.3595 115.929C58.5669 116.045 57.7588 115.992 56.9883 115.773C55.8711 115.426 54.8482 114.828 53.9979 114.024C53.1475 113.22 52.4923 112.233 52.0823 111.137C52.0152 110.898 51.8623 110.691 51.6527 110.557C51.4431 110.423 51.1915 110.37 50.9458 110.41C48.3457 110.532 46.416 109.281 44.8706 107.311C43.9878 106.137 43.4574 104.736 43.3416 103.271C43.3416 103.055 43.2555 102.847 43.1021 102.693C42.9488 102.54 42.7408 102.454 42.524 102.454C40.8993 102.078 39.4451 101.175 38.3887 99.8847C37.3323 98.5946 36.7335 96.9906 36.6859 95.3239C36.6705 93.8621 37.1138 92.4323 37.9533 91.2356C38.0731 91.1133 38.1403 90.9489 38.1403 90.7777C38.1403 90.6065 38.0731 90.4421 37.9533 90.3198C36.7023 88.8399 35.5003 87.3354 34.2248 85.8554C33.6769 85.2095 33.5134 85.2504 33.0801 85.9617C32.5485 86.9471 31.9066 87.8688 31.1667 88.709C30.7436 89.1631 30.1964 89.4826 29.593 89.628C28.9897 89.7734 28.3569 89.7382 27.7735 89.5267C27.2858 89.3616 26.8171 89.1451 26.3753 88.8807C23.9632 87.5398 21.6165 86.0844 19.3026 84.5717C18.2643 83.9807 17.427 83.0921 16.8987 82.0206V80.7778ZM59.2695 78.3248C58.8362 78.3248 58.4028 78.3248 57.9694 78.3248C57.1393 78.2418 56.3588 77.8904 55.7465 77.3238C55.1341 76.7571 54.7232 76.0063 54.5762 75.185C54.2423 73.0426 54.7205 70.8527 55.9171 69.0445C57.3317 67.0248 58.6317 64.9562 60.0054 62.863C60.5287 62.0453 60.4633 61.8818 59.4821 61.7755C56.0558 61.4438 52.7725 60.2358 49.9483 58.2678C49.0652 57.6545 49.0325 57.6872 48.4847 58.6439C46.8984 61.4239 45.3203 64.1958 43.7586 66.984C41.2239 71.5056 38.7219 76.0436 36.179 80.557C36.0249 80.7678 35.9524 81.0272 35.9749 81.2873C35.9975 81.5474 36.1135 81.7905 36.3016 81.9716C37.7243 83.6396 39.1334 85.3158 40.5289 87.0001C40.7987 87.3272 40.9704 87.2536 41.2484 87.0001C42.6252 85.8709 44.3911 85.3288 46.1644 85.491C47.9377 85.6531 49.5759 86.5066 50.725 87.8669C51.1093 88.3002 51.3383 89.1097 51.9188 89.0688C52.4993 89.0279 52.6874 88.2511 53.0962 87.8096C53.5985 87.1979 54.22 86.6948 54.9228 86.3307C55.6256 85.9667 56.3951 85.7493 57.1845 85.6919C59.1027 85.5771 60.989 86.2223 62.4351 87.4878C63.8811 88.7533 64.7707 90.5374 64.9113 92.4539C64.9003 92.7324 64.9928 93.0052 65.171 93.2195C65.3491 93.4339 65.6003 93.5748 65.8762 93.615C67.5826 94.0621 69.0855 95.078 70.1365 96.4948C71.1875 97.9115 71.7239 99.6444 71.657 101.407C71.6352 101.595 71.6856 101.784 71.798 101.936C71.9103 102.087 72.0762 102.191 72.262 102.225C72.4828 102.282 72.6954 102.372 72.908 102.446C77.5196 104.171 79.0894 109.805 76.4975 113.271C76.1459 113.729 76.244 113.901 76.7591 114.089C78.7842 114.728 80.8491 115.234 82.9406 115.602C85.508 116.035 87.8465 115.806 89.7108 113.705C90.0378 113.337 90.0542 113.198 89.6045 112.985C88.2881 112.364 86.9716 111.718 85.6634 111.08C83.3004 109.919 80.9292 108.807 78.6397 107.507C78.4355 107.413 78.2528 107.279 78.1029 107.111C77.9531 106.944 77.8393 106.747 77.7687 106.534C77.6981 106.321 77.6723 106.095 77.6927 105.872C77.7131 105.648 77.7794 105.431 77.8875 105.234C77.9617 105.011 78.0809 104.807 78.2376 104.633C78.3943 104.458 78.5852 104.318 78.7984 104.221C79.0116 104.123 79.2425 104.071 79.4768 104.066C79.7112 104.062 79.9439 104.106 80.1606 104.195C80.692 104.392 81.2235 104.604 81.7386 104.85L91.2643 109.379C92.2908 109.93 93.4164 110.272 94.5758 110.385C96.7998 110.491 97.7728 109.894 98.337 107.932C98.4352 107.725 98.4473 107.487 98.3707 107.271C98.2941 107.055 98.135 106.878 97.9282 106.779C97.2332 106.379 96.5709 105.962 95.8841 105.52C92.2128 103.296 88.4516 101.227 84.8212 98.9788C84.2327 98.6714 83.7016 98.2648 83.2513 97.7768C83.0064 97.499 82.8713 97.1414 82.8713 96.7711C82.8713 96.4008 83.0064 96.0432 83.2513 95.7654C83.4527 95.4152 83.7732 95.1491 84.1545 95.0155C84.5357 94.8819 84.9522 94.8898 85.3282 95.0377C86.0395 95.3402 86.7345 95.6918 87.4132 96.0597C91.9512 98.5127 96.4074 101.178 100.855 103.746C101.2 103.972 101.618 104.06 102.025 103.991C102.679 103.893 103.333 103.762 103.979 103.639C104.373 103.563 104.739 103.382 105.039 103.116C105.34 102.85 105.564 102.508 105.688 102.127C105.887 101.604 105.989 101.05 105.99 100.491C106.023 100.235 105.973 99.9747 105.848 99.7483C105.723 99.522 105.53 99.3412 105.295 99.2322C101.343 96.8992 97.4049 94.5444 93.4802 92.1677C91.9484 91.2519 90.4385 90.3089 88.9504 89.3386C88.556 89.0551 88.2831 88.6333 88.1861 88.1573C88.0891 87.6814 88.1752 87.1865 88.4271 86.7712C88.5203 86.5866 88.6505 86.423 88.8094 86.2907C88.9684 86.1583 89.1528 86.06 89.3513 86.0018C89.5498 85.9435 89.7581 85.9266 89.9634 85.9521C90.1687 85.9775 90.3665 86.0448 90.5448 86.1498C90.9718 86.3087 91.3895 86.4916 91.7958 86.6976C94.2488 87.9813 96.6363 89.4531 99.032 90.8676C102.417 92.8627 105.761 94.9559 109.22 96.7956C109.824 97.1254 110.519 97.2461 111.199 97.139C111.771 97.0707 112.312 96.8428 112.76 96.4813C113.208 96.1197 113.546 95.6393 113.733 95.0949C113.944 94.6065 113.996 94.0642 113.882 93.5447C113.767 93.0252 113.492 92.5549 113.096 92.2004C112.646 91.7507 112.196 91.2928 111.714 90.8758C108.517 88.1121 105.115 85.6019 101.722 83.0917C94.5205 77.8457 86.9267 73.1604 79.0077 69.0772C78.5534 68.7959 78.0372 68.6302 77.5041 68.5946C76.971 68.5589 76.4373 68.6545 75.9497 68.8727C74.7371 69.2713 73.6626 70.0056 72.8507 70.9905C71.9754 72.1343 70.9804 73.1814 69.8827 74.1139C66.8165 76.7141 63.4477 78.5292 59.2695 78.3494V78.3248ZM84.7231 56.5834C82.5012 56.5594 80.2795 56.6522 78.0674 56.8614C75.1953 57.019 72.3464 57.4655 69.5638 58.1942C68.637 58.3966 67.8166 58.9319 67.258 59.6987C66.5139 60.7698 65.7208 61.8 64.9767 62.863C63.1697 65.504 61.2564 68.1123 59.5639 70.8924C58.9265 71.7875 58.5219 72.8272 58.3864 73.9177C58.3864 74.3101 58.4437 74.4655 58.8443 74.4737C59.6679 74.4995 60.4916 74.4253 61.2973 74.2529C63.4411 73.7417 65.4263 72.7112 67.0781 71.2521C68.5441 69.9442 69.8629 68.4801 71.011 66.8858C71.371 66.4109 71.8718 66.0618 72.4419 65.8883C73.8156 65.455 75.1974 65.0707 76.5302 64.5801C76.9816 64.425 77.461 64.3681 77.9362 64.4132C78.4114 64.4584 78.8715 64.6044 79.2857 64.8417C83.7174 67.0221 88.0346 69.4015 92.2373 71.9798C99.4674 76.5288 106.434 81.4835 113.104 86.8203C114.551 87.9486 114.559 87.9731 116.031 86.8203H116.08C117.961 85.3567 119.629 83.6641 121.37 82.0533C121.64 81.7999 121.575 81.6118 121.419 81.342C120.912 80.4753 120.438 79.5922 119.939 78.7173C116.309 72.2742 112.673 65.8338 109.032 59.3961C108.411 58.3005 108.353 58.2841 107.127 58.5785C105.707 59.014 104.229 59.2291 102.744 59.2163C100.899 59.0911 99.0671 58.8177 97.2659 58.3986C93.0468 57.3765 88.8114 56.4035 84.7231 56.5834ZM128.582 85.5611C128.701 85.5091 128.815 85.449 128.925 85.3812C130.994 84.0811 133.128 82.9282 135.131 81.4891C136.162 80.7696 136.154 80.7533 135.548 79.674C131.068 71.6391 126.565 63.6234 122.041 55.6268C120.356 52.6505 118.607 49.7069 116.906 46.7388C116.62 46.2483 116.366 46.1256 115.835 46.4527C113.807 47.6792 111.747 48.9056 109.792 50.2139C108.926 50.8189 108.926 50.8189 109.449 51.7429C114.055 59.963 118.661 68.1805 123.267 76.3952C124.903 79.306 126.538 82.2005 128.173 85.1032C128.304 85.2667 128.337 85.4957 128.582 85.5611ZM28.4439 85.5611C28.7547 85.5611 28.8119 85.2994 28.9182 85.1114C30.1338 82.9691 31.3466 80.8241 32.5568 78.6764C37.6262 69.6713 42.6902 60.6526 47.7488 51.6202C47.8298 51.5288 47.8878 51.4194 47.918 51.301C47.9483 51.1826 47.9499 51.0588 47.9227 50.9397C47.8955 50.8206 47.8404 50.7097 47.7618 50.6162C47.6832 50.5226 47.5834 50.4492 47.4708 50.4019C45.5002 49.0038 43.3825 47.7773 41.3465 46.5099C40.7496 46.142 40.4798 46.2728 40.1528 46.8533C37.8633 50.8871 35.5548 54.929 33.2272 58.9791C29.1962 65.9864 25.2387 73.0264 21.2813 80.0664C20.9624 80.6306 21.0115 80.8841 21.5675 81.2602C23.7833 82.6175 25.9828 84.0157 28.1905 85.3485C28.2782 85.4231 28.3711 85.4914 28.4685 85.5529L28.4439 85.5611ZM50.7659 106.387C51.5836 106.534 52.0333 105.888 52.5075 105.25C55.0259 101.865 57.4134 98.3901 60.079 95.1194C60.5592 94.5627 60.8288 93.855 60.8407 93.1199C60.8527 92.3847 60.6062 91.6687 60.1444 91.0966C59.1714 89.821 57.2663 88.9298 55.7209 90.9085C52.93 94.4626 50.2998 98.1475 47.8305 101.963C47.5743 102.29 47.4206 102.686 47.389 103.1C47.4307 103.977 47.8061 104.805 48.4384 105.415C49.0708 106.024 49.9122 106.369 50.7904 106.379L50.7659 106.387ZM59.0815 111.979C59.6702 112.078 60.0872 111.701 60.4878 111.211C62.2049 109.11 63.7584 106.91 65.3937 104.727C66.0748 103.869 66.6872 102.958 67.2253 102.004C67.5259 101.516 67.6392 100.935 67.5442 100.369C67.409 99.7525 67.121 99.1801 66.7066 98.7043C66.2923 98.2285 65.7649 97.8645 65.173 97.646C64.7523 97.4415 64.2716 97.3967 63.8204 97.52C63.3692 97.6434 62.9782 97.9264 62.72 98.3165C61.1665 100.173 59.7519 102.135 58.321 104.04C57.5851 105.054 56.8738 106.087 56.187 107.139C55.7584 107.651 55.5341 108.303 55.5574 108.971C55.7219 109.795 56.1589 110.54 56.7981 111.086C57.4373 111.631 58.2416 111.946 59.0815 111.979V111.979ZM73.6684 109.249C73.8728 108.071 72.9897 107.425 72.2457 106.73C72.0129 106.512 71.7379 106.343 71.4375 106.235C71.1371 106.127 70.8177 106.081 70.499 106.101C70.1803 106.121 69.8691 106.206 69.5845 106.351C69.2999 106.495 69.048 106.697 68.8442 106.943C67.3914 108.711 66.0427 110.562 64.805 112.486C64.6136 112.772 64.5086 113.107 64.5025 113.451C64.5149 114.144 64.7236 114.819 65.1042 115.398C65.4849 115.977 66.0219 116.436 66.6529 116.722C67.0855 116.97 67.5955 117.046 68.0817 116.936C68.5679 116.825 68.9948 116.536 69.2776 116.125C70.6723 114.552 71.9538 112.883 73.1124 111.129C73.4977 110.581 73.6799 109.916 73.6275 109.249H73.6684ZM48.5582 92.969C48.5881 92.1737 48.3376 91.3932 47.8503 90.764C47.3631 90.1348 46.6701 89.6968 45.8927 89.5267C45.5291 89.4208 45.1427 89.4223 44.78 89.5311C44.4173 89.6399 44.0938 89.8514 43.8486 90.1399C42.9262 91.1831 42.0817 92.2926 41.322 93.4596C41.0459 93.8803 40.8705 94.359 40.8096 94.8584C40.7487 95.3579 40.8038 95.8647 40.9708 96.3394C41.1377 96.8141 41.4119 97.2439 41.7721 97.5953C42.1322 97.9467 42.5686 98.2103 43.0473 98.3655C43.4305 98.5465 43.8627 98.5957 44.2768 98.5055C44.6909 98.4153 45.0635 98.1907 45.3367 97.8668C46.3429 96.7807 47.2641 95.619 48.0922 94.3917C48.4026 93.9831 48.5667 93.4821 48.5582 92.969V92.969Z" fill="#2590CE"/>
</g>
<defs>
<clipPath id="clip0_53:101">
<rect width="153.482" height="153.482" fill="white" transform="translate(0.210358 0.574097)"/>
</clipPath>
</defs>
</svg>
