<svg width="155" height="155" viewBox="0 0 155 155" fill="none" xmlns="http://www.w3.org/2000/svg">
<g clip-path="url(#clip0_53:106)">
<path d="M77.3933 154.064C119.778 154.064 154.138 119.704 154.138 77.3191C154.138 34.934 119.778 0.574097 77.3933 0.574097C35.0082 0.574097 0.648315 34.934 0.648315 77.3191C0.648315 119.704 35.0082 154.064 77.3933 154.064Z" fill="#F7C306"/>
<path d="M123.125 69.0445C122.999 76.4944 121.033 83.7976 117.401 90.3035C113.207 98.1121 107.491 104.719 101.048 110.745C94.4175 116.921 87.1327 122.355 79.323 126.951C78.7372 127.335 78.0506 127.536 77.3503 127.528C76.65 127.521 75.9677 127.306 75.3901 126.91C68.0167 122.508 61.0958 117.389 54.728 111.628C48.3584 105.814 42.6676 99.4448 38.3095 91.9551C35.7496 87.6688 33.866 83.0135 32.7249 78.1531C31.5066 72.773 31.0896 67.3601 32.7249 61.9799C33.6648 58.673 35.272 55.5936 37.4474 52.9316C39.6229 50.2696 42.3205 48.0813 45.374 46.5017C49.6028 44.1972 54.421 43.2011 59.2169 43.6399C62.5155 43.8713 65.7353 44.7551 68.6898 46.2401C71.6443 47.725 74.2747 49.7817 76.4285 52.2907C77.3852 53.3864 77.3852 53.4273 78.3173 52.348C82.172 47.903 87.4479 44.9312 93.247 43.9383C99.0462 42.9455 105.01 43.9929 110.124 46.9024C113.343 48.6887 116.131 51.1595 118.291 54.1404C120.451 57.1213 121.931 60.5398 122.626 64.1549C122.749 64.7027 122.83 65.2669 122.904 65.7902C123.07 66.8667 123.143 67.9554 123.125 69.0445V69.0445ZM116.968 69.625C116.902 68.4067 116.968 67.2865 116.763 66.1581C116.061 61.5453 113.724 57.3385 110.179 54.3051C106.634 51.2716 102.116 49.6136 97.4504 49.6333C93.7072 49.5919 90.04 50.6898 86.9354 52.7813C84.139 54.6129 81.8543 57.1255 80.296 60.083C80.0674 60.6444 79.684 61.1293 79.1903 61.4811C78.6966 61.8329 78.1131 62.0371 77.5078 62.0699C76.8787 62.0831 76.2601 61.9069 75.7324 61.5643C75.2046 61.2217 74.7919 60.7284 74.5479 60.1484L74.2372 59.6087C72.3835 56.2008 69.5372 53.4372 66.0761 51.6848C62.615 49.9324 58.7028 49.2739 54.8588 49.7969C47.9496 50.6881 42.8965 54.433 39.7485 60.639C37.4428 65.2342 37.4836 70.0747 38.3258 74.9806C39.4204 80.7378 41.6737 86.2124 44.9488 91.0721C49.0566 97.2493 53.986 102.839 59.6012 107.687C64.8386 112.344 70.4534 116.558 76.3876 120.287C76.6875 120.53 77.0638 120.66 77.4499 120.652C77.836 120.645 78.207 120.501 78.4972 120.246C87.0505 114.922 94.8873 108.525 101.817 101.211C105.269 97.567 108.315 93.5588 110.901 89.2569C114.49 83.1572 116.878 76.7059 116.968 69.625V69.625Z" fill="#2590CE"/>
</g>
<defs>
<clipPath id="clip0_53:106">
<rect width="153.482" height="153.482" fill="white" transform="translate(0.648315 0.574097)"/>
</clipPath>
</defs>
</svg>
