<svg width="91" height="91" viewBox="0 0 91 91" fill="none" xmlns="http://www.w3.org/2000/svg">
<g clip-path="url(#clip0_55:132)">
<path d="M63.2159 90.4617H28.375C21.0692 90.4548 14.065 87.5478 8.90143 82.3794C3.73789 77.211 0.83746 70.204 0.837463 62.8982L0.837463 28.0573C0.847777 20.757 3.75235 13.7588 8.9144 8.59671C14.0764 3.43466 21.0747 0.530089 28.375 0.519775L63.2159 0.519775C70.5217 0.519772 77.5287 3.42021 82.6971 8.58374C87.8655 13.7473 90.7725 20.7515 90.7794 28.0573V62.8982C90.7794 70.2085 87.8754 77.2194 82.7063 82.3886C77.5371 87.5577 70.5262 90.4617 63.2159 90.4617ZM28.349 7.29044C22.8344 7.29044 17.5456 9.48111 13.6462 13.3805C9.74681 17.2799 7.55614 22.5687 7.55614 28.0833V62.8982C7.55614 68.4128 9.74681 73.7016 13.6462 77.601C17.5456 81.5004 22.8344 83.6911 28.349 83.6911H63.2159C68.7305 83.6911 74.0193 81.5004 77.9187 77.601C81.8181 73.7016 84.0088 68.4128 84.0088 62.8982V28.0573C84.0088 22.5427 81.8181 17.2539 77.9187 13.3545C74.0193 9.45511 68.7305 7.26445 63.2159 7.26445L28.349 7.29044Z" fill="url(#paint0_radial_55:132)"/>
<path d="M45.8149 68.2525C41.3144 68.2525 36.9149 66.9179 33.1729 64.4176C29.4308 61.9172 26.5142 58.3633 24.7919 54.2054C23.0696 50.0474 22.619 45.4721 23.497 41.058C24.375 36.644 26.5423 32.5894 29.7246 29.407C32.907 26.2247 36.9616 24.0574 41.3756 23.1794C45.7897 22.3014 50.365 22.752 54.523 24.4743C58.6809 26.1966 62.2348 29.1132 64.7352 32.8553C67.2355 36.5973 68.5701 40.9968 68.5701 45.4973C68.5632 51.5303 66.1636 57.3141 61.8977 61.5801C57.6317 65.846 51.8479 68.2456 45.8149 68.2525ZM45.8149 29.6428C42.6792 29.6428 39.6139 30.5727 37.0066 32.3148C34.3994 34.0569 32.3673 36.533 31.1673 39.4301C29.9673 42.3271 29.6533 45.5149 30.2651 48.5904C30.8768 51.6659 32.3868 54.4909 34.6041 56.7082C36.8214 58.9255 39.6464 60.4355 42.7219 61.0472C45.7974 61.659 48.9852 61.345 51.8822 60.145C54.7792 58.945 57.2554 56.9129 58.9975 54.3056C60.7396 51.6984 61.6695 48.6331 61.6695 45.4973C61.666 41.2935 59.9945 37.2629 57.022 34.2903C54.0494 31.3177 50.0188 29.6463 45.8149 29.6428V29.6428Z" fill="url(#paint1_radial_55:132)"/>
<path d="M76.9652 20.2599C76.9677 21.4314 76.623 22.5774 75.9746 23.553C75.3261 24.5287 74.403 25.2903 73.322 25.7415C72.2409 26.1928 71.0503 26.3135 69.9006 26.0884C68.751 25.8633 67.6938 25.3025 66.8627 24.4769C66.0317 23.6513 65.4639 22.5978 65.2313 21.4497C64.9987 20.3015 65.1116 19.1102 65.5557 18.0261C65.9999 16.9421 66.7553 16.0141 67.7267 15.3592C68.6981 14.7044 69.8418 14.3521 71.0132 14.347C71.7925 14.3436 72.5649 14.4939 73.286 14.7893C74.0071 15.0848 74.6629 15.5196 75.2157 16.0688C75.7686 16.6181 76.2077 17.271 76.5079 17.9901C76.8081 18.7093 76.9635 19.4806 76.9652 20.2599V20.2599Z" fill="url(#paint2_radial_55:132)"/>
</g>
<defs>
<radialGradient id="paint0_radial_55:132" cx="0" cy="0" r="1" gradientUnits="userSpaceOnUse" gradientTransform="translate(-7.20675 94.4384) scale(165.914)">
<stop stop-color="#F7EA48"/>
<stop offset="0.24" stop-color="#F08143"/>
<stop offset="0.4" stop-color="#EA5569"/>
<stop offset="0.49" stop-color="#E7407B"/>
<stop offset="1" stop-color="#2D4E9D"/>
</radialGradient>
<radialGradient id="paint1_radial_55:132" cx="0" cy="0" r="1" gradientUnits="userSpaceOnUse" gradientTransform="translate(-258.649 3311.77) scale(5810.3)">
<stop stop-color="#F7EA48"/>
<stop offset="0.24" stop-color="#F08143"/>
<stop offset="0.4" stop-color="#EA5569"/>
<stop offset="0.49" stop-color="#E7407B"/>
<stop offset="1" stop-color="#2D4E9D"/>
</radialGradient>
<radialGradient id="paint2_radial_55:132" cx="0" cy="0" r="1" gradientUnits="userSpaceOnUse" gradientTransform="translate(-8.24999 870.885) scale(1513.13)">
<stop stop-color="#F7EA48"/>
<stop offset="0.24" stop-color="#F08143"/>
<stop offset="0.4" stop-color="#EA5569"/>
<stop offset="0.49" stop-color="#E7407B"/>
<stop offset="1" stop-color="#2D4E9D"/>
</radialGradient>
<clipPath id="clip0_55:132">
<rect width="89.942" height="89.942" fill="white" transform="translate(0.837463 0.519775)"/>
</clipPath>
</defs>
</svg>
