<svg width="92" height="92" viewBox="0 0 92 92" fill="none" xmlns="http://www.w3.org/2000/svg">
<g clip-path="url(#clip0_55:142)">
<path d="M45.744 0.702148C45.5283 0.829328 45.2822 0.896427 45.0316 0.896427C44.7809 0.896427 44.5348 0.829328 44.3191 0.702148L45.744 0.702148Z" fill="#9ACA86"/>
<path d="M49.2996 0.702148C48.9205 1.04071 48.4761 0.819342 48.0708 0.858406C47.9401 0.858406 47.927 0.767256 48.0708 0.702148H49.2996Z" fill="#B7D8A6"/>
<path d="M48.0447 0.702148C48.0447 0.702148 48.0447 0.80632 48.0447 0.858406C47.6841 0.926219 47.3112 0.871178 46.9858 0.702148L48.0447 0.702148Z" fill="#9CCB88"/>
<path d="M91.5486 42.3708C91.4037 38.2971 90.614 34.2716 89.2087 30.4432C87.7744 26.3622 85.7438 22.5142 83.1825 19.0234C81.0327 16.1032 78.54 13.4497 75.7575 11.1193C73.3609 9.09524 70.7636 7.31951 68.0058 5.81958C63.9063 3.5368 59.4528 1.9524 54.8291 1.13186C53.182 0.845385 51.4957 0.910492 49.8225 0.702148H49.2996C48.8944 0.884449 48.4761 0.702148 48.0708 0.793299C47.6656 0.884449 47.3257 0.884449 46.9858 0.702148H45.6786C45.2146 0.845499 44.7178 0.845499 44.2538 0.702148L42.659 0.702148C42.489 0.858406 42.2668 0.780277 42.0707 0.793299C40.3554 0.821024 38.6436 0.960216 36.9465 1.20999C33.2887 1.95693 29.74 3.16004 26.3842 4.79089C20.6669 7.60487 15.5938 11.5634 11.482 16.4191C7.0148 21.6737 3.81728 27.8792 2.13546 34.558C1.32707 37.5316 0.888052 40.5928 0.828247 43.673C0.723342 46.4678 0.82821 49.2665 1.14198 52.0458C1.76057 56.5007 3.08421 60.8298 5.06361 64.8719C5.48984 65.7844 5.57784 66.8178 5.31198 67.7887C4.09627 73.2447 2.98514 78.7137 1.86094 84.1697C1.3892 85.9043 1.07852 87.6783 0.932824 89.4695C0.932824 90.98 1.44264 91.5138 2.97207 91.4618C4.33316 91.4203 5.68652 91.2415 7.01135 90.9279C13.0245 89.4825 19.0508 88.0892 25.077 86.6438C25.7682 86.4633 26.5016 86.5373 27.1424 86.8522C30.2159 88.3226 33.4608 89.4073 36.8027 90.0815C41.382 91.0697 46.0889 91.3333 50.7506 90.8628C57.2997 90.1932 63.6276 88.128 69.3048 84.8072C74.9819 81.4865 79.8754 76.988 83.6531 71.617C86.5752 67.5074 88.7846 62.9386 90.1891 58.1008C90.864 55.9583 91.3023 53.749 91.4964 51.5119C91.614 48.4519 91.6271 45.3918 91.5486 42.3708ZM72.5418 69.169C67.3303 75.0775 60.2353 79.0182 52.45 80.3284C44.8107 81.7612 36.9093 80.5627 30.0444 76.9298C29.2251 76.4356 28.311 76.1178 27.3609 75.9967C26.4108 75.8756 25.4458 75.9539 24.528 76.2266C21.1815 77.2033 17.7435 77.8674 14.3448 78.6747C13.3905 78.8961 13.3775 78.896 13.5735 77.9845C14.4232 73.8567 15.2729 69.7289 16.188 65.6011C16.3403 65.0026 16.256 64.3687 15.9527 63.8302C13.8558 60.189 12.3721 56.2301 11.5604 52.1109C10.2387 45.1577 11.0542 37.969 13.9003 31.4849C16.5538 25.4078 20.9054 20.2188 26.4365 16.5363C30.9708 13.4675 36.1644 11.5007 41.6001 10.7938C43.1557 10.5854 44.7374 10.5985 46.2015 10.4292C57.9664 10.7677 67.5221 15.4034 74.6333 24.7528C79.2341 30.7236 81.6878 38.0608 81.6008 45.5871C81.6934 54.3078 78.4551 62.7376 72.5418 69.169V69.169Z" fill="#81BF6D"/>
<path d="M57.9925 67.5414C52.9718 67.3556 48.1074 65.7525 43.9662 62.9188C37.4185 58.8587 31.8092 53.462 27.5084 47.0847C25.4883 44.1092 24.1699 40.7171 23.6521 37.1623C23.3335 35.1715 23.526 33.1328 24.2117 31.2362C24.8974 29.3395 26.0541 27.6467 27.5738 26.3154C28.0879 25.8206 28.6108 25.3388 29.1424 24.87C29.5095 24.5096 29.9585 24.2427 30.4512 24.092C30.944 23.9414 31.466 23.9115 31.9729 24.0048C32.4797 24.0981 32.9565 24.3119 33.3627 24.628C33.7688 24.9441 34.0924 25.3533 34.3059 25.8206C35.6131 28.5812 36.8419 31.4068 38.0576 34.2194C38.2983 34.7667 38.3806 35.3701 38.2951 35.9614C38.2096 36.5528 37.9598 37.1086 37.5739 37.566C37.038 38.2691 36.4889 38.9593 35.953 39.6754C35.4416 40.2627 35.1601 41.014 35.1601 41.7914C35.1601 42.5688 35.4416 43.3202 35.953 43.9074C38.5172 47.3593 41.5633 50.4286 44.9989 53.0224C46.6051 54.3551 48.3595 55.4998 50.2277 56.4341C50.8597 56.8086 51.6015 56.956 52.3294 56.8517C53.0573 56.7474 53.7273 56.3978 54.2278 55.8611C54.8552 55.2752 55.4435 54.6631 56.0317 54.0381C56.4922 53.5106 57.0996 53.1312 57.7768 52.9481C58.4541 52.7649 59.1707 52.7863 59.8357 53.0094C62.5678 53.8037 65.2999 54.546 68.0189 55.3663C68.5774 55.4767 69.0971 55.731 69.5261 56.1041C69.9551 56.4771 70.2783 56.9557 70.4635 57.492C70.6488 58.0284 70.6895 58.6038 70.5816 59.1608C70.4738 59.7177 70.2211 60.2368 69.8489 60.666C69.2207 61.6328 68.5263 62.5552 67.7705 63.4266C66.6077 64.8625 65.1064 65.9896 63.4004 66.7075C61.6944 67.4255 59.8366 67.7119 57.9925 67.5414V67.5414Z" fill="#81BF6D"/>
</g>
<defs>
<clipPath id="clip0_55:142">
<rect width="90.7596" height="90.7596" fill="white" transform="translate(0.828247 0.702148)"/>
</clipPath>
</defs>
</svg>
