<svg width="154" height="155" viewBox="0 0 154 155" fill="none" xmlns="http://www.w3.org/2000/svg">
<g clip-path="url(#clip0_53:90)">
<path d="M77.241 154.064C119.626 154.064 153.986 119.704 153.986 77.3191C153.986 34.934 119.626 0.574097 77.241 0.574097C34.8559 0.574097 0.495972 34.934 0.495972 77.3191C0.495972 119.704 34.8559 154.064 77.241 154.064Z" fill="#F7C306"/>
<path d="M105.973 79.5759C103.815 79.5759 101.664 79.4859 99.5139 79.5759C98.7019 79.6866 97.8773 79.499 97.1931 79.0479C96.509 78.5968 96.0117 77.9128 95.7935 77.1229C95.0658 75.2668 94.2972 73.4108 93.4305 71.6119C92.6129 69.9766 91.3864 68.603 89.3913 68.5375C87.3962 68.4721 86.4151 69.9439 85.5974 71.5056C83.2671 75.9946 82.0651 80.9332 80.1355 85.5775C80.021 85.8555 79.9719 86.158 79.8411 86.3951C79.5222 87.0084 79.4895 88.0877 78.5819 87.9732C77.6743 87.8587 77.7643 86.8121 77.658 86.1335C76.7177 81.2275 75.8101 76.2317 74.9025 71.2767C74.4069 67.9019 73.5854 64.583 72.4495 61.3667C71.7463 59.5597 70.7243 57.9489 68.5575 57.8917C66.3907 57.8345 65.2869 59.3062 64.4038 61.0805C62.7685 64.3512 62.1471 67.957 61.3294 71.4893C59.2608 80.3527 60.798 78.5293 52.3352 78.7173C48.9992 78.7909 45.6632 78.6765 42.3272 78.7173C41.595 78.7882 40.8586 78.6345 40.216 78.2767C39.5733 77.9188 39.0548 77.3738 38.7295 76.7141C33.3493 67.5645 34.2078 57.63 41.1824 49.985C47.552 42.9777 59.0073 40.9417 67.8625 45.1772C71.1391 46.5917 73.9828 48.8486 76.1044 51.7184C77.3064 53.46 77.9605 53.4191 79.2524 51.7184C88.2466 39.9278 106.766 39.9605 115.736 51.7838C122.187 60.2874 120.969 69.8458 115.63 78.3494C115.367 78.7484 114.998 79.0666 114.565 79.2687C114.132 79.4708 113.652 79.5488 113.177 79.4941C110.797 79.4941 108.426 79.4941 106.055 79.4941L105.973 79.5759Z" fill="#2590CE"/>
<path d="M68.5984 66.9513C69.4814 71.7182 70.2337 75.9455 71.0513 80.1319C71.869 84.3183 72.4332 88.7663 74.0358 92.8709C74.7063 94.5798 75.5484 96.1416 77.6416 96.3868C79.8984 96.6649 81.2475 95.3975 82.3104 93.6477C84.837 89.494 86.1125 84.817 87.8214 80.3281C88.2548 79.1998 88.2466 77.3192 89.5303 77.2701C90.6423 77.221 90.7077 79.0935 91.1656 80.1319C92.8009 83.6151 94.0928 85.095 98.3692 85.0378C104.256 84.907 110.168 84.956 116.071 85.0378C119.203 85.1114 119.178 85.463 119.146 88.9707C119.146 91.5545 117.322 91.0149 115.875 91.0557C113.504 91.1212 111.13 91.1212 108.753 91.0557C108.13 91.0266 107.509 91.1517 106.946 91.4198C106.383 91.688 105.894 92.0909 105.524 92.5929C97.913 101.507 89.4055 109.615 80.1355 116.787C77.6825 118.701 77.4127 118.66 74.9679 116.706C65.6957 109.322 56.9141 101.309 49.4244 92.0696C48.9242 91.4327 48.2764 90.9271 47.5371 90.5966C46.7977 90.2661 45.989 90.1206 45.1808 90.1727C41.7793 90.1727 38.3452 90.5815 34.9846 89.6903C33.153 89.3311 31.4784 88.4109 30.1932 87.0574C29.6617 86.436 29.0157 85.741 29.3755 84.8906C29.7353 84.0403 30.6674 84.3183 31.3706 84.3183C39.3836 84.3183 47.3966 84.3183 55.4096 84.3183C56.7424 84.3183 58.0833 84.3183 59.4161 84.3183C62.466 84.3183 63.5943 83.4188 64.6328 80.4916C65.8919 76.9921 66.2681 73.2799 67.2819 69.7068C67.4307 68.6759 67.8898 67.7147 68.5984 66.9513V66.9513Z" fill="#2590CE"/>
<path d="M126.783 92.0123C125.626 92.0419 124.502 91.6211 123.65 90.8386C122.797 90.0561 122.282 88.973 122.212 87.8177C122.186 87.2331 122.276 86.6491 122.476 86.099C122.676 85.549 122.982 85.0438 123.377 84.6121C123.772 84.1805 124.249 83.8309 124.779 83.5834C125.309 83.3358 125.883 83.1951 126.468 83.1694C127.053 83.1436 127.637 83.2332 128.187 83.4332C128.737 83.6331 129.242 83.9394 129.673 84.3346C130.105 84.7298 130.455 85.2061 130.702 85.7364C130.95 86.2667 131.09 86.8406 131.116 87.4253C131.156 88.0164 131.073 88.6094 130.872 89.1669C130.672 89.7244 130.358 90.2345 129.951 90.6652C129.544 91.0959 129.053 91.4378 128.508 91.6697C127.962 91.9015 127.375 92.0181 126.783 92.0123V92.0123Z" fill="#2590CE"/>
<path d="M138.287 77.5562C138.168 77.8327 138.011 78.0913 137.821 78.3248C136.382 79.7966 134.91 81.2357 133.463 82.6911C132.768 83.3861 132.163 83.1735 131.574 82.5439C130.985 81.9143 130.323 81.342 131.124 80.4916C132.539 78.9953 133.937 77.4827 135.458 76.109C136.349 75.3077 138.173 76.1989 138.287 77.5562Z" fill="#2590CE"/>
<path d="M128.426 97.4253C128.426 97.9404 128.426 98.4555 128.426 98.9706C128.369 100.148 127.608 100.393 126.595 100.402C125.581 100.41 124.959 100.091 124.918 99.0688C124.878 98.0467 124.918 97.1554 124.918 96.1988C124.918 94.8497 125.491 94.1465 126.913 94.1874C128.336 94.2282 128.483 95.2258 128.483 96.3214V97.4253H128.426Z" fill="#2590CE"/>
<path d="M128.426 105.643C128.361 106.297 128.614 107.155 128.091 107.842C127.863 108.085 127.568 108.254 127.243 108.33C126.919 108.405 126.58 108.384 126.268 108.267C125.971 108.232 125.699 108.086 125.507 107.859C125.314 107.631 125.215 107.339 125.229 107.041C125.229 106.166 125.229 105.291 125.229 104.416C125.229 103.32 125.54 102.568 126.864 102.568C128.189 102.568 128.5 103.32 128.5 104.408L128.426 105.643Z" fill="#2590CE"/>
<path d="M121.026 83.1571C120.102 83.1571 117.38 80.5733 117.576 79.8865C117.675 79.4116 117.92 78.9794 118.276 78.6498C118.632 78.3202 119.082 78.1094 119.563 78.0468C120.307 77.965 122.972 80.7859 122.776 81.4319C122.651 81.8424 122.426 82.2153 122.12 82.5166C121.815 82.8179 121.439 83.0381 121.026 83.1571V83.1571Z" fill="#2590CE"/>
</g>
<defs>
<clipPath id="clip0_53:90">
<rect width="153.482" height="153.482" fill="white" transform="translate(0.495972 0.574097)"/>
</clipPath>
</defs>
</svg>
